<?xml version="1.0" encoding="UTF-8"?>
<svg xmlns="http://www.w3.org/2000/svg" width="140" height="141" viewBox="0 0 140 141" fill="none">
  <path d="M104.649 12.6833C104.504 12.4478 104.197 12.3737 103.961 12.5179L100.123 14.8676C99.8878 15.0118 99.8138 15.3196 99.9579 15.5551C100.102 15.7906 100.41 15.8646 100.645 15.7205L104.057 13.6318L106.145 17.0432C106.29 17.2788 106.597 17.3528 106.833 17.2086C107.068 17.0644 107.143 16.7566 106.998 16.5211L104.649 12.6833ZM10.9326 92.7757C40.5919 90.1741 89.8586 74.8051 104.708 13.0613L103.736 12.8274C89.0303 73.9724 40.297 89.1961 10.8452 91.7796L10.9326 92.7757Z" fill="white"></path>
  <rect x="12.4445" y="103.167" width="15.5556" height="21.7778" stroke="white"></rect>
  <rect x="35.7778" y="96.9443" width="15.5556" height="28" stroke="white"></rect>
  <rect x="59.1111" y="90.7227" width="15.5556" height="34.2222" stroke="white"></rect>
  <path d="M98 91.5V73.6113H82.4444V124.945" stroke="white"></path>
  <path d="M121.333 90.5V34.7227H105.778L105.778 88" stroke="white"></path>
  <path d="M7.77777 124.944H95" stroke="white"></path>
  <circle cx="110.444" cy="109.389" r="21.7778" stroke="white"></circle>
  <path d="M99.5556 106.623H109.235M99.5556 113.537H109.235M116.84 101.157C115.319 98.5738 113.095 96.9443 110.617 96.9443C106.035 96.9443 102.321 102.516 102.321 109.389C102.321 116.262 106.035 121.833 110.617 121.833C113.095 121.833 115.319 120.204 116.84 117.62" stroke="white"></path>
</svg>
