<?xml version="1.0" encoding="UTF-8"?>
<svg xmlns="http://www.w3.org/2000/svg" width="70" height="70" viewBox="0 0 70 70" fill="none">
  <g id="Collaboration">
    <path id="Rectangle 104" d="M21.0003 52.2308H14.0003C12.216 52.2308 10.7695 50.7843 10.7695 49V45.7693M21.0003 52.2308V58.1539M21.0003 52.2308H24.7917M10.7695 58.1539H34.1251M10.7695 45.7693V15.077C10.7695 13.2927 12.216 11.8462 14.0003 11.8462H56.0003C57.7846 11.8462 59.2311 13.2927 59.2311 15.077V18.6667M10.7695 45.7693H19.5417" stroke="#1A1A1A" stroke-linecap="round" stroke-linejoin="round"></path>
    <path id="Rectangle 105" d="M29.0762 27.4615V26.3846C29.0762 24.6003 30.5226 23.1538 32.3069 23.1538H55.9993C57.7836 23.1538 59.23 24.6003 59.23 26.3846V27.4615M29.0762 27.4615H59.23M29.0762 27.4615V52.7692M59.23 27.4615V32.375M29.0762 52.7692V54.923C29.0762 56.7073 30.5226 58.1538 32.3069 58.1538H39.3745M29.0762 52.7692H44.6916M41.9993 25.3077H46.3069M44.1531 55.4615C44.1531 56.0563 43.6709 56.5384 43.0762 56.5384C42.4814 56.5384 41.9993 56.0563 41.9993 55.4615C41.9993 54.8667 42.4814 54.3846 43.0762 54.3846C43.6709 54.3846 44.1531 54.8667 44.1531 55.4615Z" stroke="#1A1A1A" stroke-linecap="round" stroke-linejoin="round"></path>
    <path id="Rectangle 106" d="M51.1538 37.1538H54.3845M46.3076 54.3846V56C46.3076 57.1895 47.2719 58.1538 48.4615 58.1538H57.0768C58.2664 58.1538 59.2307 57.1895 59.2307 56V54.3846M46.3076 54.3846V37.6923C46.3076 36.5028 47.2719 35.5385 48.4615 35.5385H57.0768C58.2664 35.5385 59.2307 36.5028 59.2307 37.6923V54.3846M46.3076 54.3846H59.2307M53.5768 56.2692C53.5768 56.7153 53.2152 57.0769 52.7692 57.0769C52.3231 57.0769 51.9615 56.7153 51.9615 56.2692C51.9615 55.8231 52.3231 55.4615 52.7692 55.4615C53.2152 55.4615 53.5768 55.8231 53.5768 56.2692Z" stroke="#1A1A1A" stroke-linecap="round" stroke-linejoin="round"></path>
  </g>
</svg>
