<?xml version="1.0" encoding="UTF-8"?>
<svg xmlns="http://www.w3.org/2000/svg" width="70" height="70" viewBox="0 0 70 70" fill="none">
  <g id="Collaboration">
    <path id="Union" d="M22.7497 48.4167H13.1247C7.1646 48.4167 2.33301 43.5851 2.33301 37.625C2.33301 31.665 7.1646 26.8334 13.1247 26.8334C14.2463 26.8334 15.328 27.0045 16.3451 27.3221C16.7019 17.3268 24.9173 9.33337 34.9997 9.33337C42.6426 9.33337 49.2127 13.9267 52.1 20.5034C52.6142 20.4461 53.1368 20.4167 53.6663 20.4167C61.3983 20.4167 67.6663 26.6847 67.6663 34.4167C67.6663 42.1487 61.3983 48.4167 53.6663 48.4167H50.1663M34.708 60.6667V33.25M34.708 33.25L27.4163 40.5093M34.708 33.25L41.9997 40.5093" stroke="#1A1A1A" stroke-linecap="round" stroke-linejoin="round"></path>
  </g>
</svg>
