<?xml version="1.0" encoding="UTF-8"?>
<svg xmlns="http://www.w3.org/2000/svg" width="70" height="70" viewBox="0 0 70 70" fill="none">
  <g id="Collaboration">
    <path id="Ellipse 29" d="M47.1152 16.4856C54.0598 20.7464 58.6922 28.4092 58.6922 37.1538C58.6922 38.7087 58.5457 40.2294 58.2658 41.7029M47.0128 57.8846C43.352 60.1058 39.0561 61.3846 34.4614 61.3846C26.2578 61.3846 19.0064 57.3079 14.6226 51.0698M10.6124 32.8461C12.3883 22.9485 20.1746 15.1363 30.0589 13.322M39.846 13.4615C39.846 16.138 37.6763 18.3077 34.9998 18.3077C32.3234 18.3077 30.1537 16.138 30.1537 13.4615C30.1537 10.7851 32.3234 8.61536 34.9998 8.61536C37.6763 8.61536 39.846 10.7851 39.846 13.4615ZM61.3845 46.3077C61.3845 48.9841 59.2148 51.1538 56.5383 51.1538C53.8619 51.1538 51.6922 48.9841 51.6922 46.3077C51.6922 43.6312 53.8619 41.4615 56.5383 41.4615C59.2148 41.4615 61.3845 43.6312 61.3845 46.3077ZM18.3075 46.3077C18.3075 48.9841 16.1378 51.1538 13.4614 51.1538C10.7849 51.1538 8.61523 48.9841 8.61523 46.3077C8.61523 43.6312 10.7849 41.4615 13.4614 41.4615C16.1378 41.4615 18.3075 43.6312 18.3075 46.3077Z" stroke="#1A1A1A" stroke-linecap="round" stroke-linejoin="round"></path>
  </g>
</svg>
