<?xml version="1.0" encoding="UTF-8"?>
<svg xmlns="http://www.w3.org/2000/svg" width="70" height="70" viewBox="0 0 70 70" fill="none">
  <g id="Collaboration">
    <path id="Ellipse 30" d="M41.3456 30.9616L33.7306 38.5766L30.1541 35M22.0771 24.2308V35.9144C22.0771 40.3701 24.3725 44.5116 28.151 46.8731L35.0002 51.1539L41.8494 46.8731C45.6279 44.5116 47.9233 40.3701 47.9233 35.9144V24.2308L35.0002 18.8462L22.0771 24.2308Z" stroke="#1A1A1A" stroke-linecap="round" stroke-linejoin="round"></path>
    <path id="Ellipse 40" d="M5.83789 45.9431L13.7745 48.1939L13.7813 48.1698M64.5424 23.1664L56.6059 20.9156L56.6012 20.9321M54.355 28.8522L56.6012 20.9321M56.6012 20.9321C64.1791 32.6518 60.8689 48.3053 49.1731 55.949C39.9246 61.9933 28.1938 61.2246 19.8861 54.8804M16.0253 40.2574L13.7813 48.1698M13.7813 48.1698C6.46286 36.4861 9.81758 21.0426 21.4092 13.4669C30.6577 7.42266 42.3886 8.19133 50.6962 14.5356" stroke="#1A1A1A" stroke-linecap="round" stroke-linejoin="round"></path>
  </g>
</svg>
