<?xml version="1.0" encoding="UTF-8"?>
<svg xmlns="http://www.w3.org/2000/svg" width="70" height="70" viewBox="0 0 70 70" fill="none">
  <g id="Collaboration">
    <path id="Vector" d="M13.7757 26.923H56.2244M13.7757 26.923C11.5206 26.923 9.69238 25.0949 9.69238 22.8397V13.7756C9.69238 11.5204 11.5206 9.69226 13.7757 9.69226H56.2244C58.4796 9.69226 60.3078 11.5204 60.3078 13.7756V22.8397C60.3078 25.0949 58.4796 26.923 56.2244 26.923M13.7757 26.923C11.5206 26.923 9.69238 28.7512 9.69238 31.0064V38.9936C9.69238 41.2487 11.5206 43.0769 13.7757 43.0769M56.2244 26.923C58.4796 26.923 60.3078 28.7512 60.3078 31.0064V38.9936C60.3078 41.2487 58.4796 43.0769 56.2244 43.0769M13.7757 43.0769H56.2244M13.7757 43.0769C11.5206 43.0769 9.69238 44.905 9.69238 47.1602V56.2243C9.69238 58.4795 11.5206 60.3076 13.7757 60.3076H56.2244C58.4796 60.3076 60.3078 58.4795 60.3078 56.2243V47.1602C60.3078 44.905 58.4796 43.0769 56.2244 43.0769M17.2309 18.3076C17.2309 19.1998 16.5077 19.923 15.6155 19.923C14.7234 19.923 14.0002 19.1998 14.0002 18.3076C14.0002 17.4155 14.7234 16.6923 15.6155 16.6923C16.5077 16.6923 17.2309 17.4155 17.2309 18.3076ZM17.2309 35.5384C17.2309 36.4306 16.5077 37.1538 15.6155 37.1538C14.7234 37.1538 14.0002 36.4306 14.0002 35.5384C14.0002 34.6463 14.7234 33.9231 15.6155 33.9231C16.5077 33.9231 17.2309 34.6463 17.2309 35.5384ZM17.2309 51.6923C17.2309 52.5844 16.5077 53.3076 15.6155 53.3076C14.7234 53.3076 14.0002 52.5844 14.0002 51.6923C14.0002 50.8001 14.7234 50.0769 15.6155 50.0769C16.5077 50.0769 17.2309 50.8001 17.2309 51.6923ZM22.6154 18.3076C22.6154 19.1998 21.8921 19.923 21 19.923C20.1078 19.923 19.3846 19.1998 19.3846 18.3076C19.3846 17.4155 20.1078 16.6923 21 16.6923C21.8921 16.6923 22.6154 17.4155 22.6154 18.3076ZM22.6154 35.5384C22.6154 36.4306 21.8921 37.1538 21 37.1538C20.1078 37.1538 19.3846 36.4306 19.3846 35.5384C19.3846 34.6463 20.1078 33.9231 21 33.9231C21.8921 33.9231 22.6154 34.6463 22.6154 35.5384ZM22.6154 51.6923C22.6154 52.5844 21.8921 53.3076 21 53.3076C20.1078 53.3076 19.3846 52.5844 19.3846 51.6923C19.3846 50.8001 20.1078 50.0769 21 50.0769C21.8921 50.0769 22.6154 50.8001 22.6154 51.6923ZM28.0004 18.3076C28.0004 19.1998 27.2771 19.923 26.385 19.923C25.4928 19.923 24.7696 19.1998 24.7696 18.3076C24.7696 17.4155 25.4928 16.6923 26.385 16.6923C27.2771 16.6923 28.0004 17.4155 28.0004 18.3076ZM28.0004 35.5384C28.0004 36.4306 27.2771 37.1538 26.385 37.1538C25.4928 37.1538 24.7696 36.4306 24.7696 35.5384C24.7696 34.6463 25.4928 33.9231 26.385 33.9231C27.2771 33.9231 28.0004 34.6463 28.0004 35.5384ZM28.0004 51.6923C28.0004 52.5844 27.2771 53.3076 26.385 53.3076C25.4928 53.3076 24.7696 52.5844 24.7696 51.6923C24.7696 50.8001 25.4928 50.0769 26.385 50.0769C27.2771 50.0769 28.0004 50.8001 28.0004 51.6923Z" stroke="#1A1A1A" stroke-linecap="round" stroke-linejoin="round"></path>
  </g>
</svg>
