<?xml version="1.0" encoding="UTF-8"?>
<svg xmlns="http://www.w3.org/2000/svg" width="112" height="92" viewBox="0 0 112 92" fill="none">
  <g clip-path="url(#clip0_2740_16916)">
    <path d="M72.3846 11.2148C72.2998 11.2142 72.2148 11.2139 72.1298 11.2139C66.7165 11.2139 61.6064 12.5122 57.094 14.8144M91.0822 17.1668C99.6532 23.1552 105.26 33.0947 105.26 44.3437C105.26 62.6407 90.4269 77.4735 72.1298 77.4735C71.1292 77.4735 70.1389 77.4291 69.1609 77.3422M48.0837 21.5539C42.4537 27.4923 39 35.5147 39 44.3437C39 54.1335 43.2463 62.9316 49.9976 68.9966" stroke="#2D6DBB"></path>
    <path d="M57.6519 62.1348C52.4892 57.9291 49.1919 51.5213 49.1919 44.3432C49.1919 31.676 59.4607 21.4072 72.1279 21.4072C84.7951 21.4072 95.0639 31.676 95.0639 44.3432C95.0639 54.493 88.4712 63.1029 79.3343 66.1243M68.9053 67.0546C69.9583 67.2027 71.0341 67.2793 72.1279 67.2793C72.3837 67.2793 72.6386 67.2751 72.8924 67.2668" stroke="#2D6DBB"></path>
    <path d="M84.3717 44.3418C84.3717 51.103 78.8906 56.5841 72.1294 56.5841C65.3682 56.5841 59.8872 51.103 59.8872 44.3418C59.8872 37.5806 65.3682 32.0996 72.1294 32.0996C78.8906 32.0996 84.3717 37.5806 84.3717 44.3418Z" stroke="#2D6DBB"></path>
    <path d="M74.1784 44.3443C74.1784 45.4757 73.2613 46.3928 72.13 46.3928C70.9987 46.3928 70.0815 45.4757 70.0815 44.3443C70.0815 43.213 70.9987 42.2959 72.13 42.2959C73.2613 42.2959 74.1784 43.213 74.1784 44.3443Z" stroke="#2D6DBB"></path>
    <path d="M72.1304 44.3427L103 13.4725M103 13.4725V9.90466L107.078 5.82715V9.39497H110.645L106.568 13.4725H103Z" stroke="#2D6DBB"></path>
    <path d="M57.9862 16.3081C57.1707 14.2197 55.139 12.7402 52.7619 12.7402C49.6654 12.7402 47.1553 15.2504 47.1553 18.3468C47.1553 21.4432 49.6654 23.9534 52.7619 23.9534C54.5479 23.9534 56.1389 23.1182 57.1656 21.8171" stroke="#FF9900"></path>
    <path d="M73.1388 67.2778C73.1388 68.9721 74.5123 70.3456 76.2066 70.3456C77.9009 70.3456 79.2744 68.9721 79.2744 67.2778C79.2744 65.5835 77.9009 64.21 76.2066 64.21C74.5123 64.21 73.1388 65.5835 73.1388 67.2778Z" stroke="#FF9900"></path>
    <path d="M56.3204 19.3667C56.3204 21.061 57.6939 22.4345 59.3882 22.4345C61.0825 22.4345 62.4561 21.061 62.4561 19.3667C62.4561 17.6723 61.0825 16.2988 59.3882 16.2988C57.6939 16.2988 56.3204 17.6723 56.3204 19.3667Z" stroke="#F072FB"></path>
    <path d="M70.1003 72.3763C70.1003 78.0116 65.5321 82.5798 59.8968 82.5798C54.2616 82.5798 49.6934 78.0116 49.6934 72.3763C49.6934 66.7411 54.2616 62.1729 59.8968 62.1729C65.5321 62.1729 70.1003 66.7411 70.1003 72.3763Z" stroke="#2FD0F3"></path>
    <path d="M63.4758 70.3412C63.4758 72.317 61.8741 73.9187 59.8983 73.9187C57.9225 73.9187 56.3208 72.317 56.3208 70.3412C56.3208 68.3654 57.9225 66.7637 59.8983 66.7637C61.8741 66.7637 63.4758 68.3654 63.4758 70.3412Z" stroke="#2FD0F3"></path>
    <path d="M53.7812 80.7883V79.5141C53.7812 76.7568 55.6059 74.4256 58.1136 73.6621M66.0138 80.7883V79.5141C66.0138 76.7568 64.1892 74.4256 61.6814 73.6621" stroke="#2FD0F3"></path>
    <path d="M93.0373 10.7035C93.0373 16.3387 88.4691 20.907 82.8338 20.907C77.1986 20.907 72.6304 16.3387 72.6304 10.7035C72.6304 5.06825 77.1986 0.5 82.8338 0.5C88.4691 0.5 93.0373 5.06825 93.0373 10.7035Z" stroke="#2FD0F3"></path>
    <path d="M86.4094 8.66345C86.4094 10.6393 84.8077 12.241 82.8319 12.241C80.8561 12.241 79.2544 10.6393 79.2544 8.66345C79.2544 6.68764 80.8561 5.08594 82.8319 5.08594C84.8077 5.08594 86.4094 6.68764 86.4094 8.66345Z" stroke="#2FD0F3"></path>
    <path d="M76.7173 19.1096V17.8354C76.7173 15.0781 78.5419 12.7469 81.0496 11.9834M88.9498 19.1096V17.8354C88.9498 15.0781 87.1252 12.7469 84.6175 11.9834" stroke="#2FD0F3"></path>
    <path d="M7.18661 86.0595C7.50497 85.8685 7.86926 85.7676 8.24052 85.7676H59.8364C60.2077 85.7676 60.572 85.8685 60.8904 86.0595L67.323 89.9191C67.7747 90.1901 67.5826 90.8838 67.0558 90.8838H1.02115C0.494374 90.8838 0.30223 90.1901 0.753923 89.9191L7.18661 86.0595Z" stroke="#2D6DBB"></path>
    <path d="M14 65.0771H24" stroke="#2D6DBB"></path>
    <path d="M19 70.0771L19 60.0771" stroke="#2D6DBB"></path>
    <path d="M31 62.9675C31 66.1582 34.3333 69.0367 36 70.0771C37.6667 69.0367 41 66.1582 41 62.9675C41 58.9792 36.5357 59.3116 36 62.7797C35.4643 59.3116 31 58.9792 31 62.9675Z" stroke="#FC5555"></path>
    <path d="M39 45H11C8.79086 45 7 46.7909 7 49V81C7 83.2091 8.79086 85 11 85H57C58.6787 85 60.1159 83.9659 60.7092 82.5" stroke="#2D6DBB"></path>
  </g>
  <defs>
    <clipPath id="clip0_2740_16916">
      <rect width="112" height="92" fill="white"></rect>
    </clipPath>
  </defs>
</svg>
