<?xml version="1.0" encoding="UTF-8"?>
<svg xmlns="http://www.w3.org/2000/svg" width="159" height="222" viewBox="0 0 159 222" fill="none">
  <path d="M111.431 132.338H123.028C125.556 132.338 127.606 134.387 127.606 136.915V200.084C127.606 202.612 125.556 204.662 123.028 204.662H36.972C34.4439 204.662 32.3945 202.612 32.3945 200.084V136.915C32.3945 135.519 33.0202 134.268 34.0066 133.428" stroke="#2D6DBB"></path>
  <path d="M31.5649 205.743C32.1986 205.363 32.9238 205.162 33.6628 205.162H126.338C127.077 205.162 127.802 205.363 128.436 205.743L139.99 212.676C141.148 213.37 140.655 215.148 139.306 215.148H20.6955C19.3456 215.148 18.8532 213.37 20.0107 212.676L31.5649 205.743Z" stroke="#2D6DBB"></path>
  <path d="M74.9647 26.1414C74.8123 26.1402 74.6597 26.1396 74.507 26.1396C64.7837 26.1396 55.6051 28.4717 47.5 32.6069M108.549 36.8322C123.944 47.5883 134.014 65.4415 134.014 85.6466C134.014 118.511 107.372 145.154 74.507 145.154C72.7097 145.154 70.931 145.074 69.1743 144.918M31.3159 44.7122C21.2034 55.3787 15 69.7882 15 85.6466C15 103.231 22.6271 119.034 34.7536 129.928" stroke="#2D6DBB"></path>
  <path d="M48.5052 117.605C39.2322 110.051 33.3096 98.5413 33.3096 85.6483C33.3096 62.8958 51.7542 44.4512 74.5067 44.4512C97.2593 44.4512 115.704 62.8958 115.704 85.6483C115.704 103.879 103.862 119.344 87.4508 124.771M68.7184 126.442C70.6097 126.708 72.5421 126.845 74.5067 126.845C74.9663 126.845 75.424 126.838 75.88 126.823" stroke="#2D6DBB"></path>
  <path d="M96.8947 85.648C96.8947 98.0122 86.8716 108.035 74.5074 108.035C62.1433 108.035 52.1201 98.0122 52.1201 85.648C52.1201 73.2839 62.1433 63.2607 74.5074 63.2607C86.8716 63.2607 96.8947 73.2839 96.8947 85.648Z" stroke="#2D6DBB"></path>
  <circle cx="74.5071" cy="85.6468" r="4.07746" stroke="#2D6DBB"></circle>
  <path d="M74.5073 85.6482L131.268 28.8877M131.268 28.8877V22.4792L138.592 15.1553V21.5637H145L137.676 28.8877H131.268Z" stroke="#2D6DBB"></path>
  <path d="M49.1023 35.2952C47.6374 31.5441 43.9882 28.8867 39.7184 28.8867C34.1566 28.8867 29.6479 33.3954 29.6479 38.9571C29.6479 44.5189 34.1566 49.0275 39.7184 49.0275C42.9265 49.0275 45.7842 47.5274 47.6284 45.1904" stroke="#FF9900"></path>
  <path d="M75.9219 126.844C75.9219 130.107 78.5672 132.752 81.8303 132.752C85.0935 132.752 87.7388 130.107 87.7388 126.844C87.7388 123.581 85.0935 120.936 81.8303 120.936C78.5672 120.936 75.9219 123.581 75.9219 126.844Z" stroke="#FF9900"></path>
  <path d="M45.7114 40.7893C45.7114 44.0525 48.3567 46.6978 51.6199 46.6978C54.883 46.6978 57.5283 44.0525 57.5283 40.7893C57.5283 37.5262 54.883 34.8809 51.6199 34.8809C48.3567 34.8809 45.7114 37.5262 45.7114 40.7893Z" stroke="#F072FB"></path>
  <circle cx="52.5354" cy="136.002" r="18.7253" stroke="#2FD0F3"></circle>
  <path d="M59.3593 132.342C59.3593 136.11 56.3041 139.165 52.5354 139.165C48.7666 139.165 45.7114 136.11 45.7114 132.342C45.7114 128.573 48.7666 125.518 52.5354 125.518C56.3041 125.518 59.3593 128.573 59.3593 132.342Z" stroke="#2FD0F3"></path>
  <path d="M41.5493 151.107V148.818C41.5493 143.865 44.8267 139.678 49.331 138.307M63.5211 151.107V148.818C63.5211 143.865 60.2438 139.678 55.7394 138.307" stroke="#2FD0F3"></path>
  <circle cx="93.7327" cy="25.2253" r="18.7253" stroke="#2FD0F3"></circle>
  <path d="M100.556 21.5642C100.556 25.3329 97.5009 28.3881 93.7321 28.3881C89.9634 28.3881 86.9082 25.3329 86.9082 21.5642C86.9082 17.7954 89.9634 14.7402 93.7321 14.7402C97.5009 14.7402 100.556 17.7954 100.556 21.5642Z" stroke="#2FD0F3"></path>
  <path d="M82.7466 40.3302V38.0416C82.7466 33.0888 86.024 28.9016 90.5283 27.5303M104.718 40.3302V38.0416C104.718 33.0888 101.441 28.9016 96.9367 27.5303" stroke="#2FD0F3"></path>
  <path d="M44 175.366H60" stroke="#2D6DBB"></path>
  <path d="M52 183.366L52 167.366" stroke="#2D6DBB"></path>
  <path d="M72 172.151C72 177.014 77.3333 181.4 80 182.986C82.6667 181.4 88 177.014 88 172.151C88 166.073 80.8571 166.579 80 171.865C79.1429 166.579 72 166.073 72 172.151Z" stroke="#FC5555"></path>
  <path d="M100 175.366H116" stroke="#2D6DBB"></path>
</svg>
