<?xml version="1.0" encoding="UTF-8"?>
<svg xmlns="http://www.w3.org/2000/svg" width="70" height="70" viewBox="0 0 70 70" fill="none">
  <path d="M10.335 24C8.83433 27.3598 8 31.0825 8 35C8 49.5769 19.5516 61.4558 34 61.9818M27 9.20487C29.5279 8.42175 32.2147 8 35 8C49.9117 8 62 20.0883 62 35C62 42.4092 59.0156 49.1214 54.1833 54" stroke="#2D6DBB"></path>
  <path d="M35.5 16.9934L41.3719 27.0749L41.4828 27.2653L41.6982 27.312L53.1008 29.7812L45.3272 38.4811L45.1804 38.6454L45.2026 38.8646L46.3779 50.4721L35.7016 45.7675L35.5 45.6786L35.2984 45.7675L24.6221 50.4721L25.7974 38.8646L25.8196 38.6454L25.6728 38.4811L17.8992 29.7812L29.3018 27.312L29.5172 27.2653L29.6281 27.0749L35.5 16.9934Z" stroke="#2D6DBB"></path>
  <path d="M9.01214 13.4966L12.8562 11.6142L13.054 11.5173L13.1161 11.3059L14.3207 7.1988L17.2988 10.273L17.4521 10.4313L17.6724 10.4249L21.9507 10.3014L19.9472 14.0837L19.8441 14.2785L19.9182 14.486L21.3577 18.5168L17.1414 17.7802L16.9244 17.7422L16.7499 17.8768L13.3612 20.4915L12.7589 16.2539L12.7279 16.0358L12.546 15.9115L9.01214 13.4966Z" stroke="#2D6DBB"></path>
  <path d="M37.5668 60.0513L41.4108 58.1689L41.6087 58.072L41.6707 57.8606L42.8754 53.7535L45.8535 56.8277L46.0068 56.9859L46.227 56.9796L50.5054 56.8561L48.5019 60.6384L48.3988 60.8331L48.4729 61.0406L49.9124 65.0715L45.6961 64.3348L45.4791 64.2969L45.3046 64.4315L41.9159 67.0462L41.3136 62.8086L41.2826 62.5905L41.1007 62.4662L37.5668 60.0513Z" stroke="#2D6DBB"></path>
  <path d="M54.8399 64.0423L56.0185 61.6636L56.1163 61.4662L56.0366 61.2608L55.0764 58.7859L57.7029 59.1718L57.9209 59.2038L58.0916 59.0645L60.1486 57.3865L60.5933 60.0037L60.6302 60.2209L60.8154 60.3402L63.0469 61.778L60.6953 63.0097L60.5001 63.1119L60.4438 63.3249L59.766 65.8915L57.8679 64.0356L57.7104 63.8815L57.4904 63.8939L54.8399 64.0423Z" stroke="#2D6DBB"></path>
</svg>
