<?xml version="1.0" encoding="UTF-8"?>
<svg xmlns="http://www.w3.org/2000/svg" width="70" height="70" viewBox="0 0 70 70" fill="none">
  <path d="M10 26V24.2682C10 22.4663 11.4722 21 13.2812 21H62.7188C64.5278 21 66 22.4663 66 24.2682V26M10 26V56.7318C10 58.5337 11.4722 60 13.2812 60H62.7188C64.5278 60 66 58.5337 66 56.7318V26M10 26H66M13.5 23.5H14.5M16 23.5H17M18.5 23.5H19.5M15 44H33M15 48H33M15 52H27M57.5709 41.1844C57.3291 41.0162 56.8691 40.7503 56.5411 40.6086L56.0233 39.3586C56.1511 39.0365 56.2908 38.5211 56.3443 38.2233C56.4023 37.9011 56.2987 37.5709 56.0672 37.3393L54.6607 35.9328C54.4291 35.7012 54.0989 35.5977 53.7767 35.6557C53.4834 35.7084 52.9714 35.8458 52.6414 35.9767L51.3914 35.4589C51.2543 35.1415 50.9886 34.6778 50.8156 34.4291C50.6286 34.1603 50.322 34 49.9946 34H48.0054C47.678 34 47.3714 34.1603 47.1844 34.4291C47.0162 34.6709 46.7503 35.1309 46.6086 35.4589L45.3586 35.9767C45.0365 35.8489 44.5211 35.7092 44.2233 35.6557C43.9013 35.5979 43.5709 35.7013 43.3393 35.9328L41.9328 37.3393C41.7013 37.5709 41.5977 37.9011 41.6557 38.2233C41.7084 38.5166 41.8458 39.0286 41.9767 39.3586L41.4589 40.6086C41.1415 40.7457 40.6778 41.0114 40.4291 41.1844C40.1603 41.3714 40 41.678 40 42.0054V43.9946C40 44.322 40.1603 44.6286 40.4291 44.8156C40.6709 44.9838 41.1309 45.2497 41.4589 45.3914L41.9767 46.6414C41.8489 46.9635 41.7092 47.4789 41.6557 47.7767C41.5977 48.0989 41.7013 48.4291 41.9328 48.6607L43.3393 50.0672C43.5708 50.2987 43.9009 50.4021 44.2233 50.3443C44.5166 50.2916 45.0286 50.1542 45.3586 50.0233L46.6086 50.5411C46.7457 50.8585 47.0114 51.3222 47.1844 51.5709C47.3714 51.8397 47.678 52 48.0054 52H49.9946C50.322 52 50.6286 51.8397 50.8156 51.5709C50.9838 51.3291 51.2497 50.8691 51.3914 50.5411L52.6414 50.0233C52.9635 50.1511 53.4789 50.2908 53.7767 50.3443C54.0989 50.4023 54.4291 50.2987 54.6607 50.0672L56.0672 48.6607C56.2987 48.4291 56.4023 48.0989 56.3443 47.7767C56.2916 47.4834 56.1542 46.9714 56.0233 46.6414L56.5411 45.3914C56.8585 45.2543 57.3222 44.9886 57.5709 44.8156C57.8397 44.6286 58 44.322 58 43.9946V42.0054C58 41.678 57.8397 41.3714 57.5709 41.1844ZM49 47.0001C46.7944 47.0001 45 45.2057 45 43.0001C45 40.7945 46.7944 39.0001 49 39.0001C51.2056 39.0001 53 40.7945 53 43.0001C53 45.2057 51.2056 47.0001 49 47.0001ZM15 31H27V37H15V31Z" stroke="#2D6DBB"></path>
  <path d="M4 15V13.2682C4 11.4663 5.47219 10 7.28125 10H56.7188C58.5278 10 60 11.4663 60 13.2682V15M4 15V45.7318C4 47.5337 5.47219 49 7.28125 49H10M4 15H60M60 15V21M7.5 12.5H8.5M10 12.5H11M12.5 12.5H13.5" stroke="#2D6DBB"></path>
</svg>
