<?xml version="1.0" encoding="UTF-8"?>
<svg xmlns="http://www.w3.org/2000/svg" width="70" height="70" viewBox="0 0 70 70" fill="none">
  <path d="M63 33C63 35.2091 56.732 37 49 37C41.268 37 35 35.2091 35 33M63 33C63 30.7909 56.732 29 49 29C41.268 29 35 30.7909 35 33M63 33V57C63 59.2091 56.732 61 49 61C41.268 61 35 59.2091 35 57V33M63 41C63 43.2091 56.732 45 49 45C41.268 45 35 43.2091 35 41M63 49C63 51.2091 56.732 53 49 53C41.268 53 35 51.2091 35 49" stroke="#2D6DBB"></path>
  <path d="M7.35355 14.6464C7.15829 14.4512 6.84171 14.4512 6.64645 14.6464L3.46447 17.8284C3.2692 18.0237 3.2692 18.3403 3.46447 18.5355C3.65973 18.7308 3.97631 18.7308 4.17157 18.5355L7 15.7071L9.82843 18.5355C10.0237 18.7308 10.3403 18.7308 10.5355 18.5355C10.7308 18.3403 10.7308 18.0237 10.5355 17.8284L7.35355 14.6464ZM7 54H6.5V54.5H7V54ZM35 54.5H35.5V53.5H35V54.5ZM6.5 15V54H7.5V15H6.5ZM7 54.5H35V53.5H7V54.5Z" fill="#2D6DBB"></path>
  <rect x="16" y="20" width="8" height="34" stroke="#2D6DBB"></rect>
  <path d="M31 54V14H39V30" stroke="#2D6DBB"></path>
  <path d="M57 29.5V27H49V29" stroke="#2D6DBB"></path>
</svg>
