<?xml version="1.0" encoding="UTF-8"?>
<svg xmlns="http://www.w3.org/2000/svg" width="70" height="70" viewBox="0 0 70 70" fill="none">
  <path d="M51.5626 52.4907L49.7419 54.4176L65.5427 69.3474L69.1842 65.4936L53.3833 50.5638L51.5626 52.4907ZM51.5626 52.4907L48.0942 49.2135M53.0827 36.7503C53.0827 46.7375 44.9865 54.8337 34.9994 54.8337C25.0122 54.8337 16.916 46.7375 16.916 36.7503C16.916 26.7632 25.0122 18.667 34.9994 18.667C44.9865 18.667 53.0827 26.7632 53.0827 36.7503Z" stroke="#2D6DBB" stroke-linejoin="round"></path>
  <path d="M26.834 36.7497H43.1673M35.0007 44.9163L35.0007 28.583" stroke="#2D6DBB"></path>
  <path d="M8.75 12.833L25.0833 12.833" stroke="#2D6DBB"></path>
  <path d="M46.375 57.75H7.5C5.29086 57.75 3.5 55.9591 3.5 53.75V7.5C3.5 5.29086 5.29086 3.5 7.5 3.5H53.75C55.9591 3.5 57.75 5.29086 57.75 7.5V47.8333" stroke="#2D6DBB" stroke-linejoin="round"></path>
  <path d="M62.416 22.458L69.416 22.458" stroke="#2D6DBB"></path>
  <path d="M62.416 18.958L69.416 14.583" stroke="#2D6DBB"></path>
  <path d="M62.416 25.958L69.416 30.333" stroke="#2D6DBB"></path>
</svg>
