<?xml version="1.0" encoding="UTF-8"?>
<svg xmlns="http://www.w3.org/2000/svg" width="70" height="70" viewBox="0 0 70 70" fill="none">
  <path d="M8.63636 11.2727V41.5C8.63636 45.9183 12.2181 49.5 16.6364 49.5H32.3636M8.63636 11.2727H6M8.63636 11.2727H35M61.3636 11.2727V41.5C61.3636 45.9183 57.7819 49.5 53.3636 49.5H37.6364M61.3636 11.2727H64M61.3636 11.2727H35M35 11.2727V6M32.3636 49.5L28.4091 64M32.3636 49.5H37.6364M37.6364 49.5L41.5909 64" stroke="#2D6DBB"></path>
  <path d="M40.3369 15.0792C44.8053 16.4804 48.3315 20.3055 49.5693 25.1634C50.0119 26.9004 48.5265 28.5 46.5469 28.5H40.5469C38.6139 28.5 37.0469 26.933 37.0469 25V18C37.0469 17.0299 37.45 16.1517 38.0626 15.5947C38.6664 15.0456 39.4696 14.8072 40.3369 15.0792Z" stroke="#2D6DBB"></path>
  <mask id="mask0_3236_7855" style="mask-type:alpha" maskUnits="userSpaceOnUse" x="19" y="16" width="30" height="30">
    <path d="M47.7112 33.0434C46.7712 39.9576 40.8427 45.2864 33.6706 45.2864C25.8444 45.2864 19.5 38.942 19.5 31.1159C19.5 23.9437 24.8288 18.0153 31.743 17.0752C32.4917 16.9735 33.1706 17.5957 33.1706 18.4453V29.1159C33.1706 30.4966 34.2898 31.6159 35.6706 31.6159H46.3411C47.1907 31.6159 47.813 32.2947 47.7112 33.0434Z" fill="#D9D9D9" stroke="black"></path>
  </mask>
  <g mask="url(#mask0_3236_7855)">
    <path d="M47.7112 33.0434C46.7712 39.9576 40.8427 45.2864 33.6706 45.2864C25.8444 45.2864 19.5 38.942 19.5 31.1159C19.5 23.9437 24.8288 18.0153 31.743 17.0752C32.4917 16.9735 33.1706 17.5957 33.1706 18.4453V29.1159C33.1706 30.4966 34.2898 31.6159 35.6706 31.6159H46.3411C47.1907 31.6159 47.813 32.2947 47.7112 33.0434Z" stroke="#2D6DBB"></path>
    <path d="M13.2031 32.0372L40.6231 4.61719" stroke="#2D6DBB"></path>
    <path d="M14.0781 35.4571L41.4981 8.03711" stroke="#2D6DBB"></path>
    <path d="M14.9492 38.877L42.3692 11.457" stroke="#2D6DBB"></path>
    <path d="M15.8242 42.2969L43.2442 14.877" stroke="#2D6DBB"></path>
    <path d="M16.6953 45.7168L44.1153 18.2969" stroke="#2D6DBB"></path>
    <path d="M17.5703 49.1368L44.9903 21.7168" stroke="#2D6DBB"></path>
    <path d="M18.4453 52.5567L45.8653 25.1367" stroke="#2D6DBB"></path>
    <path d="M19.3164 55.9766L46.7364 28.5566" stroke="#2D6DBB"></path>
    <path d="M20.1875 59.3965L47.6075 31.9766" stroke="#2D6DBB"></path>
    <path d="M21.0625 62.8164L48.4825 35.3965" stroke="#2D6DBB"></path>
    <path d="M21.9336 66.2364L49.3536 38.8164" stroke="#2D6DBB"></path>
    <path d="M22.8086 69.6563L50.2286 42.2363" stroke="#2D6DBB"></path>
    <path d="M23.6836 73.0762L51.1036 45.6562" stroke="#2D6DBB"></path>
  </g>
</svg>
