<?xml version="1.0" encoding="UTF-8"?>
<svg xmlns="http://www.w3.org/2000/svg" width="112" height="92" viewBox="0 0 112 92" fill="none">
  <g clip-path="url(#clip0_2740_16824)">
    <path d="M69.2096 86C68.6735 88.764 66.2402 90.8509 63.3195 90.8509H11.3042C7.99049 90.8509 5.3042 88.1646 5.3042 84.8509V7.73145C5.3042 4.41774 7.99049 1.73145 11.3042 1.73145H63.3196C66.6333 1.73145 69.3195 4.41774 69.3195 7.73144V40.5" stroke="#2D6DBB"></path>
    <path d="M29.4667 39.2837L29.8004 38.9114L29.4313 38.5804L29.0972 38.9468L29.4667 39.2837ZM38.5669 47.4425L38.2331 47.8148L38.6147 48.1569L38.9473 47.767L38.5669 47.4425ZM47.6671 36.7733L47.9872 36.3892L47.6075 36.0727L47.2867 36.4488L47.6671 36.7733ZM81.7395 0.934363C81.7032 0.66061 81.4519 0.468077 81.1782 0.504327L76.7171 1.09506C76.4434 1.13131 76.2508 1.38262 76.2871 1.65637C76.3233 1.93012 76.5746 2.12266 76.8484 2.08641L80.8138 1.56131L81.3389 5.52669C81.3751 5.80045 81.6264 5.99298 81.9002 5.95673C82.1739 5.92048 82.3665 5.66917 82.3302 5.39542L81.7395 0.934363ZM51.4327 39.9113L51.1126 40.2954L51.5128 40.6289L51.8296 40.2154L51.4327 39.9113ZM0.652681 71.6282L29.8362 39.6206L29.0972 38.9468L-0.0862748 70.9545L0.652681 71.6282ZM29.1329 39.656L38.2331 47.8148L38.9007 47.0702L29.8004 38.9114L29.1329 39.656ZM38.9473 47.767L48.0475 37.0978L47.2867 36.4488L38.1865 47.118L38.9473 47.767ZM47.347 37.1574L51.1126 40.2954L51.7528 39.5272L47.9872 36.3892L47.347 37.1574ZM51.8296 40.2154L81.6407 1.30408L80.8469 0.695919L51.0358 39.6072L51.8296 40.2154Z" fill="#72C655"></path>
    <path d="M88.663 33.7937C99.8133 35.4848 108.627 44.2984 110.318 55.4487C110.596 57.279 109.069 58.8593 107.112 58.8593H88.7524C86.8194 58.8593 85.2524 57.2923 85.2524 55.3593V37C85.2524 35.0426 86.8327 33.5161 88.663 33.7937Z" stroke="#A72FDF"></path>
    <mask id="mask0_2740_16824" style="mask-type:alpha" maskUnits="userSpaceOnUse" x="54" y="37" width="53" height="54">
      <path d="M106.145 65.7145C105.143 79.079 93.9806 89.6111 80.3593 89.6111C66.0776 89.6111 54.5 78.0335 54.5 63.7518C54.5 50.1305 65.0321 38.9686 78.3966 37.9659C79.1837 37.9069 79.8593 38.5539 79.8593 39.3926V61.7518C79.8593 63.1326 80.9785 64.2518 82.3593 64.2518H104.719C105.557 64.2518 106.204 64.9274 106.145 65.7145Z" fill="#D9D9D9" stroke="black"></path>
    </mask>
    <g mask="url(#mask0_2740_16824)">
      <path d="M106.145 65.7145C105.143 79.079 93.9806 89.6111 80.3593 89.6111C66.0776 89.6111 54.5 78.0335 54.5 63.7518C54.5 50.1305 65.0321 38.9686 78.3966 37.9659C79.1837 37.9069 79.8593 38.5539 79.8593 39.3926V61.7518C79.8593 63.1326 80.9785 64.2518 82.3593 64.2518H104.719C105.557 64.2518 106.204 64.9274 106.145 65.7145Z" stroke="#FF9900"></path>
      <path d="M29.21 67.2042L78.4767 17.9375" stroke="#FF9900"></path>
      <path d="M30.7788 69.088L80.0455 19.8213" stroke="#FF9900"></path>
      <path d="M32.3481 70.9698L81.6149 21.7031" stroke="#FF9900"></path>
      <path d="M33.917 72.8527L83.1837 23.5859" stroke="#FF9900"></path>
      <path d="M35.4863 74.7364L84.7531 25.4697" stroke="#FF9900"></path>
      <path d="M37.0552 76.6183L86.3219 27.3516" stroke="#FF9900"></path>
      <path d="M38.624 78.5011L87.8907 29.2344" stroke="#FF9900"></path>
      <path d="M40.1934 80.3839L89.4601 31.1172" stroke="#FF9900"></path>
      <path d="M41.7622 82.2667L91.0289 33" stroke="#FF9900"></path>
      <path d="M43.3315 84.1495L92.5983 34.8828" stroke="#FF9900"></path>
      <path d="M44.9004 86.0323L94.1671 36.7656" stroke="#FF9900"></path>
      <path d="M46.4692 87.9152L95.736 38.6484" stroke="#FF9900"></path>
      <path d="M48.0376 89.7989L97.3043 40.5322" stroke="#FF9900"></path>
      <path d="M49.6069 91.6808L98.8737 42.4141" stroke="#FF9900"></path>
      <path d="M51.1758 93.5636L100.443 44.2969" stroke="#FF9900"></path>
      <path d="M52.7451 95.4474L102.012 46.1807" stroke="#FF9900"></path>
      <path d="M54.314 97.3292L103.581 48.0625" stroke="#FF9900"></path>
      <path d="M55.8828 99.212L105.15 49.9453" stroke="#FF9900"></path>
      <path d="M57.4521 101.095L106.719 51.8281" stroke="#FF9900"></path>
      <path d="M59.021 102.978L108.288 53.7109" stroke="#FF9900"></path>
      <path d="M60.5903 104.859L109.857 55.5928" stroke="#FF9900"></path>
      <path d="M62.1592 106.743L111.426 57.4766" stroke="#FF9900"></path>
      <path d="M63.728 108.626L112.995 59.3594" stroke="#FF9900"></path>
      <path d="M65.2974 110.51L114.564 61.2432" stroke="#FF9900"></path>
      <path d="M66.8662 112.392L116.133 63.125" stroke="#FF9900"></path>
      <path d="M68.4355 114.275L117.702 65.0078" stroke="#FF9900"></path>
    </g>
    <rect x="15.856" y="79.125" width="8.78642" height="2.51041" rx="1" stroke="#2D6DBB"></rect>
    <path d="M17.856 12H26.6424" stroke="#2D6DBB"></path>
    <path d="M27.8975 12H36.6839" stroke="#2D6DBB"></path>
    <path d="M37.939 12H46.7254" stroke="#2D6DBB"></path>
    <path d="M47.981 12H56.7674" stroke="#2D6DBB"></path>
    <path d="M17.856 14.5107H26.6424" stroke="#2D6DBB"></path>
    <path d="M27.8975 14.5107H36.6839" stroke="#2D6DBB"></path>
    <path d="M37.939 14.5107H46.7254" stroke="#2D6DBB"></path>
    <path d="M47.981 14.5107H56.7674" stroke="#2D6DBB"></path>
    <path d="M17.856 17.0225H26.6424" stroke="#2D6DBB"></path>
    <path d="M27.8975 17.0225H36.6839" stroke="#2D6DBB"></path>
    <path d="M27.8975 19.5322H36.6839" stroke="#2D6DBB"></path>
    <path d="M37.939 17.0225H46.7254" stroke="#2D6DBB"></path>
    <path d="M37.939 19.5322H46.7254" stroke="#2D6DBB"></path>
    <path d="M37.939 22.043H46.7254" stroke="#2D6DBB"></path>
    <path d="M37.939 24.5527H46.7254" stroke="#2D6DBB"></path>
    <rect x="26.8975" y="75.3594" width="8.78642" height="6.27602" rx="1" stroke="#2D6DBB"></rect>
    <rect x="37.939" y="59.6689" width="8.78642" height="21.9661" rx="1" stroke="#2D6DBB"></rect>
    <path d="M57.7674 51.5V50C57.7674 49.4477 57.3197 49 56.7674 49H49.981C49.4287 49 48.981 49.4477 48.981 50V80.6353C48.981 81.1876 49.4287 81.6353 49.981 81.6353H56.7674C57.3197 81.6353 57.7674 81.1876 57.7674 80.6353V76" stroke="#2D6DBB"></path>
  </g>
  <defs>
    <clipPath id="clip0_2740_16824">
      <rect width="112" height="92" fill="white"></rect>
    </clipPath>
  </defs>
</svg>
