<?xml version="1.0" encoding="UTF-8"?>
<svg xmlns="http://www.w3.org/2000/svg" width="159" height="222" viewBox="0 0 159 222" fill="none">
  <g clip-path="url(#clip0_2640_2843)">
    <path d="M115.704 139.612V43.5342C115.704 40.2205 113.018 37.5342 109.704 37.5342H28.3242C25.0105 37.5342 22.3242 40.2205 22.3242 43.5342V161.534C22.3242 164.848 25.0105 167.534 28.3242 167.534H65.8101M107.007 167.534H99.6833" stroke="#2D6DBB"></path>
    <path d="M57.5704 55.845L57.9042 55.4727L57.535 55.1417L57.2009 55.5081L57.5704 55.845ZM70.845 67.7464L70.5113 68.1187L70.8929 68.4608L71.2254 68.0709L70.845 67.7464ZM84.1197 52.1831L84.4398 51.7989L84.06 51.4825L83.7393 51.8586L84.1197 52.1831ZM133.594 -0.065637C133.558 -0.33939 133.307 -0.531923 133.033 -0.495673L128.572 0.0950603C128.298 0.131311 128.106 0.382618 128.142 0.65637C128.178 0.930123 128.429 1.12266 128.703 1.08641L132.668 0.56131L133.194 4.52669C133.23 4.80045 133.481 4.99298 133.755 4.95673C134.029 4.92048 134.221 4.66917 134.185 4.39542L133.594 -0.065637ZM89.6126 56.7605L89.2925 57.1446L89.6927 57.4781L90.0095 57.0646L89.6126 56.7605ZM15.3695 102.872L57.9399 56.1819L57.2009 55.5081L14.6305 102.198L15.3695 102.872ZM57.2366 56.2173L70.5113 68.1187L71.1788 67.3741L57.9042 55.4727L57.2366 56.2173ZM71.2254 68.0709L84.5001 52.5075L83.7393 51.8586L70.4646 67.4219L71.2254 68.0709ZM83.7996 52.5672L89.2925 57.1446L89.9327 56.3764L84.4398 51.7989L83.7996 52.5672ZM90.0095 57.0646L133.495 0.304081L132.702 -0.304081L89.2157 56.4564L90.0095 57.0646Z" fill="#29CC6A"></path>
    <path d="M110.492 138.942C128.302 140.78 142.46 154.937 144.298 172.748C144.491 174.616 142.949 176.19 141 176.19H110.549C108.616 176.19 107.049 174.623 107.049 172.69V142.239C107.049 140.291 108.624 138.749 110.492 138.942Z" stroke="#A72FDF"></path>
    <mask id="mask0_2640_2843" style="mask-type:alpha" maskUnits="userSpaceOnUse" x="61" y="144" width="78" height="78">
      <path d="M138.041 185.071C137.015 205.113 120.439 221.048 100.141 221.048C79.1815 221.048 62.1904 204.057 62.1904 183.097C62.1904 162.8 78.1253 146.224 98.1672 145.197C98.9677 145.156 99.6411 145.811 99.6411 146.646V181.097C99.6411 182.478 100.76 183.597 102.141 183.597H136.592C137.427 183.597 138.082 184.271 138.041 185.071Z" fill="#D9D9D9" stroke="black"></path>
    </mask>
    <g mask="url(#mask0_2640_2843)">
      <path d="M138.041 185.071C137.015 205.113 120.439 221.048 100.141 221.048C79.1815 221.048 62.1904 204.057 62.1904 183.097C62.1904 162.8 78.1253 146.224 98.1672 145.197C98.9677 145.156 99.6411 145.811 99.6411 146.646V181.097C99.6411 182.478 100.76 183.597 102.141 183.597H136.592C137.427 183.597 138.082 184.271 138.041 185.071Z" stroke="#FF9900"></path>
      <path d="M25.5293 188.133L97.3954 116.267" stroke="#FF9900"></path>
      <path d="M27.8179 190.881L99.684 119.015" stroke="#FF9900"></path>
      <path d="M30.1069 193.626L101.973 121.76" stroke="#FF9900"></path>
      <path d="M32.3955 196.372L104.262 124.506" stroke="#FF9900"></path>
      <path d="M34.6846 199.12L106.551 127.254" stroke="#FF9900"></path>
      <path d="M36.9731 201.865L108.839 129.999" stroke="#FF9900"></path>
      <path d="M39.2622 204.611L111.128 132.745" stroke="#FF9900"></path>
      <path d="M41.5508 207.359L113.417 135.493" stroke="#FF9900"></path>
      <path d="M43.8394 210.104L115.705 138.238" stroke="#FF9900"></path>
      <path d="M46.1284 212.851L117.995 140.984" stroke="#FF9900"></path>
      <path d="M48.417 215.599L120.283 143.732" stroke="#FF9900"></path>
      <path d="M50.7061 218.344L122.572 146.478" stroke="#FF9900"></path>
      <path d="M52.9937 221.092L124.86 149.226" stroke="#FF9900"></path>
      <path d="M55.2827 223.838L127.149 151.972" stroke="#FF9900"></path>
      <path d="M57.5713 226.583L129.437 154.717" stroke="#FF9900"></path>
      <path d="M59.8604 229.331L131.726 157.465" stroke="#FF9900"></path>
      <path d="M62.1489 232.077L134.015 160.211" stroke="#FF9900"></path>
      <path d="M64.4375 234.822L136.304 162.956" stroke="#FF9900"></path>
      <path d="M66.7266 237.57L138.593 165.704" stroke="#FF9900"></path>
      <path d="M69.0151 240.316L140.881 168.45" stroke="#FF9900"></path>
      <path d="M71.3042 243.061L143.17 171.195" stroke="#FF9900"></path>
      <path d="M73.5928 245.809L145.459 173.943" stroke="#FF9900"></path>
      <path d="M75.8813 248.556L147.747 176.689" stroke="#FF9900"></path>
      <path d="M78.1704 251.303L150.037 179.437" stroke="#FF9900"></path>
      <path d="M80.459 254.049L152.325 182.183" stroke="#FF9900"></path>
      <path d="M82.748 256.795L154.614 184.929" stroke="#FF9900"></path>
    </g>
    <rect x="41.1338" y="116.769" width="11.8169" height="2.66197" rx="0.5" stroke="#2D6DBB"></rect>
    <path d="M40.6338 127.254H53.4507" stroke="#2D6DBB"></path>
    <path d="M55.2812 127.254H68.0981" stroke="#2D6DBB"></path>
    <path d="M69.9287 127.254H82.7456" stroke="#2D6DBB"></path>
    <path d="M84.5776 127.254H97.3945" stroke="#2D6DBB"></path>
    <path d="M40.6338 130.916H53.4507" stroke="#2D6DBB"></path>
    <path d="M55.2812 130.916H68.0981" stroke="#2D6DBB"></path>
    <path d="M69.9287 130.916H82.7456" stroke="#2D6DBB"></path>
    <path d="M84.5776 130.916H97.3945" stroke="#2D6DBB"></path>
    <path d="M40.6338 134.579H53.4507" stroke="#2D6DBB"></path>
    <path d="M55.2812 134.579H68.0981" stroke="#2D6DBB"></path>
    <path d="M55.2812 138.241H68.0981" stroke="#2D6DBB"></path>
    <path d="M69.9287 134.579H82.7456" stroke="#2D6DBB"></path>
    <path d="M69.9287 138.241H82.7456" stroke="#2D6DBB"></path>
    <path d="M69.9287 141.902H82.7456" stroke="#2D6DBB"></path>
    <path d="M69.9287 145.564H82.7456" stroke="#2D6DBB"></path>
    <rect x="55.7812" y="111.275" width="11.8169" height="8.15492" rx="0.5" stroke="#2D6DBB"></rect>
    <rect x="70.4287" y="88.3877" width="11.8169" height="31.0422" rx="0.5" stroke="#2D6DBB"></rect>
    <rect x="85.0776" y="72.8252" width="11.8169" height="46.6056" rx="0.5" stroke="#2D6DBB"></rect>
  </g>
  <defs>
    <clipPath id="clip0_2640_2843">
      <rect width="159" height="222" fill="white"></rect>
    </clipPath>
  </defs>
</svg>
