<?xml version="1.0" encoding="UTF-8"?>
<svg xmlns="http://www.w3.org/2000/svg" width="70" height="70" viewBox="0 0 70 70" fill="none">
  <path d="M46.8971 50.7409L45.0764 52.6678L60.8772 67.5976L64.5186 63.7437L48.7178 48.8139L46.8971 50.7409ZM46.8971 50.7409L43.4286 47.4636M43.4286 47.4636C50.3254 40.1645 49.999 28.6565 42.6998 21.7598M43.4286 47.4636C36.5318 54.7628 25.0235 55.0891 17.7244 48.1923C10.4252 41.2955 10.0991 29.7875 16.9958 22.4883" stroke="#2D6DBB" stroke-linejoin="round"></path>
  <path d="M41.3725 13.9548C41.3725 18.3211 35.4046 31.7017 35.4046 31.7017H24.0969C24.0969 31.7017 18.1289 18.3211 18.1289 13.9548C18.1289 7.53627 23.3322 2.33301 29.7507 2.33301C36.1693 2.33301 41.3725 7.53627 41.3725 13.9548Z" stroke="#2D6DBB" stroke-linejoin="round"></path>
  <path d="M41.3725 13.9548C41.3725 18.3211 35.4046 31.7017 35.4046 31.7017H24.0969C24.0969 31.7017 18.1289 18.3211 18.1289 13.9548C18.1289 7.53627 23.3322 2.33301 29.7507 2.33301C36.1693 2.33301 41.3725 7.53627 41.3725 13.9548Z" stroke="#2D6DBB" stroke-linejoin="round"></path>
  <path d="M38.232 13.9544C38.232 13.2505 38.1462 12.5667 37.9846 11.9127M26.4531 6.13882C27.4669 5.71047 28.5814 5.47363 29.7512 5.47363C33.2045 5.47363 36.1757 7.53763 37.4986 10.4993" stroke="#2D6DBB" stroke-linejoin="round"></path>
  <path d="M24.0977 34.6855H35.4054" stroke="#2D6DBB" stroke-linejoin="round"></path>
  <path d="M24.0977 37.8271H35.4054" stroke="#2D6DBB" stroke-linejoin="round"></path>
  <path d="M24.0977 40.9678H35.4054" stroke="#2D6DBB" stroke-linejoin="round"></path>
  <path d="M30.6922 31.702V17.0962C30.6922 15.8819 31.6766 14.8975 32.8909 14.8975C34.1053 14.8975 35.0897 15.8819 35.0897 17.0962C35.0897 18.3105 34.1053 19.2949 32.8909 19.2949H26.6089C25.3946 19.2949 24.4102 18.3105 24.4102 17.0962C24.4102 15.8819 25.3946 14.8975 26.6089 14.8975C27.8232 14.8975 28.8076 15.8819 28.8076 17.0962V31.702" stroke="#2D6DBB" stroke-linejoin="round"></path>
  <path d="M32.8914 40.9678C32.8914 42.7025 31.4852 44.1088 29.7504 44.1088C28.0157 44.1088 26.6094 42.7025 26.6094 40.9678" stroke="#2D6DBB" stroke-linejoin="round"></path>
  <path d="M14.9878 13.0127L9.33398 13.0127" stroke="#2D6DBB" stroke-linejoin="round"></path>
  <path d="M14.9592 17.0514L9.36328 20.2822" stroke="#2D6DBB" stroke-linejoin="round"></path>
  <path d="M14.9592 8.97394L9.36328 5.74316" stroke="#2D6DBB" stroke-linejoin="round"></path>
  <path d="M44.5141 13.0127L50.168 13.0127" stroke="#2D6DBB" stroke-linejoin="round"></path>
  <path d="M44.5428 17.0514L50.1387 20.2822" stroke="#2D6DBB" stroke-linejoin="round"></path>
  <path d="M44.5428 8.97394L50.1387 5.74316" stroke="#2D6DBB" stroke-linejoin="round"></path>
</svg>
