<?xml version="1.0" encoding="UTF-8"?>
<svg xmlns="http://www.w3.org/2000/svg" width="24" height="24" viewBox="0 0 24 24" fill="none">
  <g clip-path="url(#clip0_3261_20157)">
    <path d="M12 3.8C14.6692 3.8 14.9846 3.80769 16.0385 3.86154C17.0154 3.90769 17.5462 4.06923 17.8923 4.20769C18.3615 4.39231 18.6923 4.60769 19.0385 4.95385C19.3923 5.30769 19.6077 5.63846 19.7846 6.1C19.9231 6.45385 20.0846 6.98462 20.1308 7.95385C20.1769 9.00769 20.1923 9.32308 20.1923 11.9923C20.1923 14.6615 20.1846 14.9769 20.1308 16.0308C20.0846 17.0077 19.9231 17.5385 19.7846 17.8846C19.6 18.3538 19.3846 18.6846 19.0385 19.0385C18.6923 19.3846 18.3538 19.6077 17.8923 19.7846C17.5385 19.9231 17.0077 20.0846 16.0385 20.1308C14.9846 20.1769 14.6692 20.1923 12 20.1923C9.33077 20.1923 9.01538 20.1846 7.96154 20.1308C6.98462 20.0846 6.45385 19.9231 6.10769 19.7846C5.63846 19.6 5.30769 19.3846 4.95385 19.0385C4.60769 18.6846 4.38462 18.3538 4.20769 17.8846C4.06923 17.5308 3.90769 17 3.86154 16.0308C3.81538 14.9769 3.8 14.6615 3.8 11.9923C3.8 9.32308 3.80769 9.00769 3.86154 7.95385C3.90769 6.97692 4.06923 6.44615 4.20769 6.1C4.39231 5.63077 4.60769 5.3 4.95385 4.95385C5.30769 4.6 5.63846 4.38462 6.10769 4.20769C6.46154 4.06923 6.99231 3.90769 7.96154 3.86154C9.01538 3.81538 9.33077 3.8 12 3.8ZM12 2C9.28462 2 8.94615 2.01538 7.87692 2.06154C6.81538 2.10769 6.08462 2.27692 5.44615 2.52308C4.78462 2.77692 4.23077 3.12308 3.67692 3.67692C3.12308 4.23077 2.77692 4.79231 2.52308 5.44615C2.27692 6.08462 2.10769 6.80769 2.06154 7.87692C2.01538 8.94615 2 9.28462 2 12C2 14.7154 2.00769 15.0538 2.06154 16.1231C2.10769 17.1846 2.27692 17.9154 2.52308 18.5538C2.77692 19.2077 3.12308 19.7692 3.67692 20.3231C4.23077 20.8769 4.79231 21.2231 5.44615 21.4769C6.08462 21.7231 6.80769 21.8923 7.87692 21.9385C8.94615 21.9846 9.28462 22 12 22C14.7154 22 15.0538 21.9923 16.1231 21.9385C17.1846 21.8923 17.9154 21.7231 18.5538 21.4769C19.2154 21.2231 19.7692 20.8769 20.3231 20.3231C20.8769 19.7692 21.2231 19.2077 21.4769 18.5538C21.7231 17.9154 21.8923 17.1923 21.9385 16.1231C21.9846 15.0538 22 14.7154 22 12C22 9.28462 21.9923 8.94615 21.9385 7.87692C21.8923 6.81538 21.7231 6.08462 21.4769 5.44615C21.2231 4.79231 20.8769 4.23077 20.3231 3.67692C19.7692 3.12308 19.2077 2.77692 18.5538 2.52308C17.9154 2.27692 17.1923 2.10769 16.1231 2.06154C15.0538 2.01538 14.7154 2 12 2Z" fill="#999999"></path>
    <path d="M11.9998 6.86914C9.16133 6.86914 6.86133 9.16914 6.86133 12.0076C6.86133 14.8461 9.16133 17.1461 11.9998 17.1461C14.8383 17.1461 17.1383 14.8461 17.1383 12.0076C17.1383 9.16914 14.8383 6.86914 11.9998 6.86914ZM11.9998 15.3384C10.1613 15.3384 8.66902 13.8461 8.66902 12.0076C8.66902 10.1691 10.1613 8.67683 11.9998 8.67683C13.8383 8.67683 15.3306 10.1691 15.3306 12.0076C15.3306 13.8461 13.8383 15.3384 11.9998 15.3384Z" fill="#999999"></path>
    <path d="M18.5387 6.66191C18.5387 7.32345 18.0002 7.86191 17.3387 7.86191C16.6771 7.86191 16.1387 7.32345 16.1387 6.66191C16.1387 6.00038 16.6771 5.46191 17.3387 5.46191C18.0002 5.46191 18.5387 6.00038 18.5387 6.66191Z" fill="#999999"></path>
  </g>
  <defs>
    <clipPath id="clip0_3261_20157">
      <rect width="20" height="20" fill="white" transform="translate(2 2)"></rect>
    </clipPath>
  </defs>
</svg>
