<?xml version="1.0" encoding="UTF-8"?>
<svg xmlns="http://www.w3.org/2000/svg" width="112" height="92" viewBox="0 0 112 92" fill="none">
  <path d="M56 21.2344V11C56 9.34315 54.6569 8 53 8H29C27.3431 8 26 9.34315 26 11V28.5M56 74.1719V82C56 83.6569 54.6569 85 53 85H29C27.3431 85 26 83.6569 26 82V60.7774" stroke="#2FD0F3"></path>
  <path d="M48 21.1104C47.4407 17.6425 44.5414 15 41.0487 15C37.1558 15 34 18.2828 34 22.3324C34 25.2917 35.6852 27.8415 38.1118 29" stroke="#2FD0F3"></path>
  <path d="M34 46H38" stroke="#2FD0F3"></path>
  <path d="M34 51H38" stroke="#2FD0F3"></path>
  <path d="M34 55H38" stroke="#2FD0F3"></path>
  <path d="M34 60H38" stroke="#2FD0F3"></path>
  <rect x="38" y="21" width="72" height="53" rx="3" stroke="#2D6DBB"></rect>
  <path d="M58.7729 60.6922V40.1289" stroke="#72C655"></path>
  <path d="M63.9136 60.6921L63.9136 42.6992" stroke="#72C655"></path>
  <path d="M69.0547 60.6937L69.0547 51.0547" stroke="#FC5555"></path>
  <path d="M74.1948 60.6939L74.1948 45.9141" stroke="#72C655"></path>
  <path d="M79.335 60.6933L79.335 36.917" stroke="#72C655"></path>
  <path d="M84.4761 60.6926L84.4761 54.9092" stroke="#FC5555"></path>
  <path d="M89.6177 60.6921L89.6177 42.6992" stroke="#72C655"></path>
  <path d="M53.6318 34.3457V59.6924C53.6318 60.2447 54.0796 60.6924 54.6318 60.6924H93.7945" stroke="#2D6DBB"></path>
  <path d="M69 80V74H79V80" stroke="#2D6DBB"></path>
  <path d="M51 80H87.3158H97" stroke="#2D6DBB"></path>
  <path d="M99.3044 8.0008L95.4478 11.8574L99.3044 15.714" stroke="#FF9900"></path>
  <path d="M105.667 15.714L109.523 11.8574L105.667 8.0008" stroke="#FF9900"></path>
  <rect x="12.438" y="25" width="22.3507" height="40.3284" rx="3" transform="rotate(15 12.438 25)" stroke="#2D6DBB"></rect>
  <path d="M17.9097 28.9814L19.1612 29.3168M21.0385 29.8198L27.2962 31.4966" stroke="#2D6DBB"></path>
  <path d="M14.5998 63.8085C14.4629 64.3194 13.9378 64.6226 13.4269 64.4857C12.916 64.3488 12.6128 63.8237 12.7497 63.3128C12.8866 62.8019 13.4117 62.4987 13.9226 62.6356C14.4335 62.7725 14.7367 63.2976 14.5998 63.8085Z" stroke="#2D6DBB"></path>
</svg>
