<?xml version="1.0" encoding="UTF-8"?>
<svg xmlns="http://www.w3.org/2000/svg" width="112" height="92" viewBox="0 0 112 92" fill="none">
  <path d="M78.0288 46.6709V27.0596M78.0288 76.2221V84.7293C78.0288 88.043 75.3425 90.7293 72.0288 90.7293H42.9033C39.5896 90.7293 36.9033 88.043 36.9033 84.7293V25.6943C36.9033 22.3806 39.5896 19.6943 42.9033 19.6943H72.6335" stroke="#2D6DBB"></path>
  <path d="M48.1196 23.4346H50.6121M54.3508 23.4346H66.813" stroke="#2D6DBB"></path>
  <path d="M58.8363 84.4982C58.8363 85.2545 58.2233 85.8676 57.467 85.8676C56.7107 85.8676 56.0977 85.2545 56.0977 84.4982C56.0977 83.742 56.7107 83.1289 57.467 83.1289C58.2233 83.1289 58.8363 83.742 58.8363 84.4982Z" stroke="#2D6DBB"></path>
  <path d="M8 40.3125H47.6864" stroke="#2D6DBB"></path>
  <path d="M8 43.5371H47.6864" stroke="#2D6DBB"></path>
  <path d="M8 46.7627H47.6864" stroke="#2D6DBB"></path>
  <path d="M8 49.9844H47.6864" stroke="#2D6DBB"></path>
  <path d="M8 53.208H47.6864" stroke="#2D6DBB"></path>
  <path d="M24.7627 56.4326L48.0271 56.4326" stroke="#2D6DBB"></path>
  <rect x="61.7051" y="46.9863" width="41.3717" height="28.9094" rx="4.5" stroke="#2D6DBB"></rect>
  <path d="M63.6973 48.9917L79.6176 59.4851C81.287 60.5855 83.4515 60.5855 85.1209 59.4851L101.063 48.9775" stroke="#2D6DBB"></path>
  <path d="M76.7519 8.93406C72.9118 10.2606 70.8742 14.4489 72.2007 18.289L74.6026 25.242L88.5087 20.4383L86.1068 13.4852C84.7803 9.64516 80.5919 7.60753 76.7519 8.93406Z" stroke="#F072FB"></path>
  <path d="M84.1941 24.8477L84.8803 26.8343C85.1646 27.6572 84.6168 28.5931 83.6568 28.9247C82.6967 29.2563 81.6881 28.8581 81.4038 28.0352L80.7176 26.0486" stroke="#F072FB"></path>
  <rect x="72.8638" y="25.8418" width="18.3905" height="2.75858" rx="1.37929" transform="rotate(-19.0571 72.8638 25.8418)" stroke="#F072FB"></rect>
  <ellipse cx="84.7067" cy="2.86934" rx="1.86934" ry="1.86934" stroke="#F072FB"></ellipse>
  <path d="M99.2954 20.5725C100.213 24.0068 98.1736 27.5351 94.7393 28.4531" stroke="#2D6DBB"></path>
  <path d="M96.2125 20.3107C97.2747 22.0422 96.732 24.307 95.0005 25.3691" stroke="#2D6DBB"></path>
  <path d="M46.2489 67.7638C46.5158 67.693 46.7895 67.8521 46.8603 68.119L48.0128 72.4689C48.0835 72.7358 47.9245 73.0096 47.6576 73.0803C47.3906 73.151 47.1169 72.992 47.0462 72.725L46.0217 68.8585L42.1551 69.8829C41.8882 69.9537 41.6145 69.7946 41.5437 69.5277C41.473 69.2607 41.6321 68.987 41.899 68.9163L46.2489 67.7638ZM9.22724 76.9196C13.4666 78.686 20.4071 80.3567 27.4121 79.624C34.399 78.8932 41.4224 75.7784 45.9446 67.9959L46.8093 68.4983C42.0901 76.6197 34.7407 79.8629 27.5162 80.6186C20.3097 81.3724 13.2 79.6582 8.84262 77.8426L9.22724 76.9196Z" fill="#FF9900"></path>
</svg>
