<?xml version="1.0" encoding="UTF-8"?>
<svg xmlns="http://www.w3.org/2000/svg" width="159" height="222" viewBox="0 0 159 222" fill="none">
  <path d="M99.3895 88.5355V53.5233M99.3895 141.294V157.193C99.3895 162.716 94.9123 167.193 89.3895 167.193H35.9678C30.4449 167.193 25.9678 162.716 25.9678 157.193V50.374C25.9678 44.8512 30.4449 40.374 35.9678 40.374H89.7571" stroke="#2D6DBB"></path>
  <path d="M45.9922 47.0479H50.442M57.1167 47.0479H79.3657" stroke="#2D6DBB"></path>
  <circle cx="62.6787" cy="156.069" r="2.83735" stroke="#2D6DBB"></circle>
  <path d="M73.4502 186.377H144.303" stroke="#2D6DBB"></path>
  <path d="M73.4502 192.133H144.303" stroke="#2D6DBB"></path>
  <path d="M73.4502 197.888H144.303" stroke="#2D6DBB"></path>
  <path d="M73.4502 203.644H144.303" stroke="#2D6DBB"></path>
  <path d="M73.4502 209.398H144.303" stroke="#2D6DBB"></path>
  <path d="M103.379 215.154L144.913 215.154" stroke="#2D6DBB"></path>
  <rect x="69.8535" y="88.71" width="74.6466" height="52.3976" rx="4.5" stroke="#2D6DBB"></rect>
  <path d="M73.8032 92.6845L104.387 112.843C106.056 113.943 108.221 113.943 109.89 112.843L140.512 92.6592" stroke="#2D6DBB"></path>
  <path d="M97.1077 21.167C90.252 23.5352 86.6142 31.0127 88.9824 37.8684L93.2705 50.2818L118.097 41.7056L113.809 29.2922C111.441 22.4365 103.963 18.7987 97.1077 21.167Z" stroke="#F072FB"></path>
  <path d="M110.395 49.5775L111.62 53.1242C112.127 54.5933 111.149 56.2641 109.435 56.8562C107.721 57.4483 105.921 56.7373 105.413 55.2682L104.188 51.7216" stroke="#F072FB"></path>
  <rect x="90.1665" y="51.3545" width="32.8328" height="4.92492" rx="2.46246" transform="rotate(-19.0571 90.1665 51.3545)" stroke="#F072FB"></rect>
  <circle cx="111.311" cy="10.3373" r="3.33735" stroke="#F072FB"></circle>
  <path d="M137.356 41.9414C138.995 48.0727 135.353 54.3718 129.222 56.0107" stroke="#2D6DBB"></path>
  <path d="M131.852 41.474C133.748 44.5653 132.779 48.6086 129.688 50.5049" stroke="#2D6DBB"></path>
  <path d="M37.0029 122.716C37.0736 122.449 36.9146 122.175 36.6476 122.105L32.2977 120.952C32.0308 120.881 31.7571 121.04 31.6864 121.307C31.6156 121.574 31.7747 121.848 32.0416 121.919L35.9082 122.943L34.8837 126.81C34.813 127.077 34.9721 127.35 35.239 127.421C35.5059 127.492 35.7796 127.333 35.8504 127.066L37.0029 122.716ZM20.6741 189.063C17.5012 181.448 14.5013 168.99 15.8177 156.405C17.1322 143.838 22.7435 131.171 36.7708 123.02L36.2684 122.156C21.9022 130.503 16.1625 143.496 14.8231 156.301C13.4857 169.088 16.5289 181.714 19.751 189.447L20.6741 189.063Z" fill="#FF9900"></path>
</svg>
