<?xml version="1.0" encoding="UTF-8"?>
<svg xmlns="http://www.w3.org/2000/svg" width="70" height="70" viewBox="0 0 70 70" fill="none">
  <circle cx="37.8316" cy="36.665" r="12.314" transform="rotate(-45 37.8316 36.665)" stroke="#2D6DBB" stroke-linejoin="round"></circle>
  <path d="M44.9268 46.9844L55.2465 57.3042C56.1371 58.1947 57.5809 58.1947 58.4715 57.3042V57.3042C59.362 56.4136 59.362 54.9698 58.4715 54.0792L48.1517 43.7594" stroke="#2D6DBB" stroke-linejoin="round"></path>
  <path d="M6.41699 20.2325V50.1663C6.41699 52.4215 8.24516 54.2497 10.5003 54.2497H52.0628M6.41699 20.2325V15.1663C6.41699 12.9112 8.24516 11.083 10.5003 11.083H59.5003C61.7555 11.083 63.5837 12.9112 63.5837 15.1663V20.2325M6.41699 20.2325H63.5837M63.5837 20.2325V50.1663C63.5837 52.4215 61.7555 54.2497 59.5003 54.2497H58.6253M35.8753 24.4997H12.8337V34.9997H25.667M25.3753 37.333H12.8337V47.833H27.417V43.1663M12.5085 15.775C12.5085 16.5524 11.8792 17.1826 11.1028 17.1826C10.3264 17.1826 9.69705 16.5524 9.69705 15.775C9.69705 14.9976 10.3264 14.3674 11.1028 14.3674C11.8792 14.3674 12.5085 14.9976 12.5085 15.775ZM18.1315 15.775C18.1315 16.5524 17.5021 17.1826 16.7257 17.1826C15.9494 17.1826 15.32 16.5524 15.32 15.775C15.32 14.9976 15.9494 14.3674 16.7257 14.3674C17.5021 14.3674 18.1315 14.9976 18.1315 15.775ZM23.7544 15.775C23.7544 16.5524 23.1251 17.1826 22.3487 17.1826C21.5723 17.1826 20.9429 16.5524 20.9429 15.775C20.9429 14.9976 21.5723 14.3674 22.3487 14.3674C23.1251 14.3674 23.7544 14.9976 23.7544 15.775Z" stroke="#2D6DBB" stroke-linejoin="round"></path>
  <path d="M42.875 31.791L32.9585 41.7075" stroke="#2D6DBB" stroke-linejoin="round"></path>
  <path d="M32.959 31.791L42.8754 41.7075" stroke="#2D6DBB" stroke-linejoin="round"></path>
</svg>
