<?xml version="1.0" encoding="UTF-8"?>
<svg xmlns="http://www.w3.org/2000/svg" width="24" height="24" viewBox="0 0 24 24" fill="none">
  <path d="M20.5639 19.9598L13.8624 10.4458L13.1048 9.36975L8.31107 2.56401L7.9139 2H2.02344L3.46007 4.04016L9.8339 13.0903L10.5915 14.1651L15.7127 21.4367L16.1101 22.0002H22.0005L20.5639 19.96V19.9598ZM16.8101 20.6979L11.4896 13.1436L10.7319 12.0682L4.55795 3.30208H7.21369L12.2066 10.3913L12.9642 11.4667L19.4659 20.6978H16.8101V20.6979Z" fill="#999999"></path>
  <path d="M10.7316 12.0679L11.4892 13.1432L10.591 14.1648L3.69944 21.9998H2L9.83336 13.0899L10.7316 12.0679Z" fill="#999999"></path>
  <path d="M21.2907 2L13.8619 10.4458L12.9637 11.4667L12.2061 10.3913L13.1043 9.36975L18.1364 3.64595L19.5912 2H21.2907Z" fill="#999999"></path>
</svg>
